<?xml version="1.0" encoding="utf-8"?>
<!-- Generator: Adobe Illustrator 22.1.0, SVG Export Plug-In . SVG Version: 6.00 Build 0)  -->
<svg version="1.1" id="Layer_1" xmlns="http://www.w3.org/2000/svg" xmlns:xlink="http://www.w3.org/1999/xlink" x="0px" y="0px"
	 viewBox="490 350 300 300" style="enable-background:new 0 0 300 300;" xml:space="preserve">
<style type="text/css">
	.st0{fill:#C9612A;}
	.st1{opacity:0;fill:#FFFFFF;}
</style>
<path class="st0" d="M628.7,415.2c-1.1,3.6-1.5,4.3-3.6,6.5c-2.8,2.9-6.1,5.2-9.9,6.6c-3.6,1.4-7.3,2.4-10.9,3.6
	c-2.1,0.7-4.3,1.3-6.4,2.1c-2,0.8-3.5,2.1-4.5,4.1c-1,2.2-0.6,4.1,1.5,5.4c2.1,1.4,4.5,1.6,6.9,1.4c3.9-0.4,7.5-1.4,11.1-2.9
	c4.8-1.9,9.2-4.5,13.3-7.5c9.4-7,18.6-14.2,27.2-22.1c5.9-5.4,11.8-10.8,17.8-16.1c1.9-1.7,3.9-3.3,5.9-4.9c3.9-3,8.4-4.4,13.4-4.5
	c0.6,1.1-0.3,1.4-0.9,1.9c-0.5,0.4-1,0.8-1.5,1.2c-10.1,7-17.5,16.3-23.9,26.6c-3.6,5.9-6.3,12.2-7.7,19c-0.3,1.6-0.6,3.1-0.3,4.7
	c0.1,0.6,1,0.9,1.5,0.7c1.2-0.5,2-1.6,2.9-2.5c4.7-4.8,9.4-9.7,14.1-14.4c4.2-4.2,8.4-8.3,12.8-12.3c4-3.7,8.5-6.8,13.5-9.1
	c2.3-1,4.6-2,7.2-2.3c-0.4,1.4-1.4,1.9-2.3,2.6c-3,2.6-6.1,5.1-9.1,7.8c-3.6,3.2-6.9,6.6-9.6,10.7c-1,1.5-1.9,3-2.5,4.6
	c-1.5,3.6-0.8,6.5,1.7,8.7s6.5,2.8,9.4,1.1c1.8-1,3.4-2.3,5-3.7c4.4-3.7,9.1-7.1,13.8-10.3c2.2-1.5,4.5-3,6.9-4.4
	c5.2-3.1,10.8-4.6,16.9-4.3c3.4,0.2,6.7,0.1,10.1,0.2c5.8,0.3,11.1-1.3,16.1-4c6.3-3.5,12.6-6.9,18.4-11.3c0.6-0.4,1.1-1.1,2.3-0.8
	c-0.4,2.6-1.9,4.7-3.4,6.7c-3.4,4.5-7.6,8.2-12.3,11.4c-4.7,3.2-9.6,5.7-14.9,7.7c-6.9,2.6-13.8,5.1-20.7,7.6c-8.1,3-15,7.8-21,14
	c-3.7,3.9-6.5,8.3-8.3,13.4c-0.8,2.3-1.1,4.7-0.8,7.1c0.4,3.3,2.5,5.1,5.9,5c1.1,0,2.2-0.3,3.3-0.6c2.8-0.7,5.4-1.9,7.9-3.3
	c2.4-1.4,4.7-2.8,7-4.3c8.1-5.3,15.3-11.5,20.2-20.9c-0.8,6.9-3.3,12.5-6.6,17.7c-3.9,6.1-8.3,11.8-13.3,17
	c-7.1,7.4-14.4,14.5-22.1,21.3c-3.5,3.1-6.8,6.3-10.1,9.6c-2.2,2.2-3.8,4.7-4.8,7.6c-1,2.9,0.9,5.2,4,4.7c4-0.6,7.8-1.7,11.4-3.6
	c9.3-4.9,17.5-11.2,23.7-19.8c0.7-0.9,1.3-1.8,2-2.7c0.1-0.1,0.3-0.2,0.9-0.5c-0.9,2.4-1.5,4.4-2.4,6.4
	c-12,26.6-25.9,52.1-42.8,75.9c-9.7,13.8-20.9,26.3-33.4,37.6c-11.5,10.3-24.7,17.5-39.6,21.6c-4.5,1.2-9.1,1.7-13.7,2.1
	c-27.1,2.6-51.3-4.7-72.2-22.2c-5.6-4.6-10.4-10-14.5-15.9c-2.1-3-4.1-6.1-6.1-9.2c-5.5-8.6-8.7-18.1-10.7-28.1
	c-3.3-16.6-2.4-33.1,2.7-49.3c0.8-2.4,1.6-4.9,2.7-7.2c6.6-14.1,15.4-26.5,27.4-36.5c20.1-16.8,42.4-29.7,67.2-38
	c3.3-1.1,6.7-2.1,10.1-3.1c7.3-2.2,14-5.5,19.6-10.7C627.8,415.5,628.3,415.4,628.7,415.2z M591.4,457.7
	c-43.7-1-84.2,35.3-84.6,84.3c-0.4,48.1,40.6,85.7,84.1,85c47.2,1.1,85.6-40.2,85.5-83.8C676.4,496.2,638.8,457.3,591.4,457.7z"/>
<path class="st0" d="M655.2,542.4c0.8,33.3-24.5,56.4-47.1,61.9c-37.8,9.3-67.9-13.6-76.9-40.9c-12.2-37,8.3-68.8,36-80
	c8.9-3.6,18.2-5.3,27.6-4.9c15.6,0.7,29.1,6.6,40.5,17.3c10.9,10.2,17.5,22.7,19.6,37.5c0.1,0.9,0.3,1.9,0.3,2.9
	C655.2,538.3,655.2,540.3,655.2,542.4z M550.6,555.1c-3.8,0-7.6,0-11.5,0c-2.8,0-3.3,0.3-2.9,3.4c0.1,0.6,0.3,1.2,0.5,1.8
	c2.4,7.3,6.1,14,11.1,19.9c0.9,1.1,2,2.1,3,3c0.7,0.6,1.5,0.4,2.1-0.3c0.5-0.6,0.9-1.3,1.3-2c3.6-6.2,7.2-12.4,10.8-18.6
	c0.6-1,1.1-1.9,1.5-3c0.7-1.9-0.1-3.5-2.1-4c-1.1-0.3-2.2-0.3-3.3-0.3C557.6,555.1,554.1,555.1,550.6,555.1z M632.9,555.1
	C632.9,555.1,632.9,555.2,632.9,555.1c-4.2,0-8.3-0.1-12.5,0.1c-4.2,0.2-5.2,2.4-3.1,6.1c3.7,6.5,7.5,13,11.3,19.5
	c2.1,3.6,2.4,3.6,5.5,0.5c5.8-6,9.4-13.2,12.3-20.9c0.4-1,0.5-2.2,0.6-3.3c0.1-1.2-0.4-1.8-1.6-1.9
	C641.2,555.1,637.1,555.1,632.9,555.1z M592.2,599.8c2.1-0.1,4.1-0.1,6.2-0.4c2.2-0.3,4.4-0.8,6.6-1.2c0.5-0.1,0.9-0.2,1.4-0.3
	c1-0.3,1.4-1.2,1-2.3c-0.1-0.3-0.2-0.6-0.4-0.9c-4-6.9-7.9-13.8-12-20.7c-2.4-3.9-4.3-3.9-6.6-0.1c-2.3,3.6-4.4,7.4-6.6,11.1
	c-1.9,3.3-3.8,6.6-5.6,10c-1,1.9-0.7,2.6,1.3,3C582.3,599.1,587.2,600,592.2,599.8z M592,484.9c-1.4,0-3-0.1-4.6,0
	c-3.7,0.2-7.3,0.8-10.8,1.8c-1,0.3-1.1,1-0.9,1.9c0.1,0.3,0.2,0.6,0.4,0.9c4,7.1,8,14.2,12.1,21.2c1.9,3.2,4.8,3.2,6.7,0
	c3.8-6.4,7.5-12.9,11.3-19.4c0.3-0.6,0.6-1.1,0.9-1.7c0.7-1.5,0.3-2.5-1.2-3c-1-0.4-2.1-0.6-3.2-0.8
	C599.2,485.2,595.7,484.8,592,484.9z M550.7,529.3c3.3,0,6.7,0,10,0c1.1,0,2.2,0,3.3-0.1c2.3-0.3,3.3-2,2.5-4.1
	c-0.3-0.7-0.7-1.4-1.1-2.1c-3.7-6.5-7.5-13-11.2-19.4c-0.3-0.5-0.7-1.1-1.1-1.6c-0.7-0.8-1.8-1-2.5-0.4c-0.5,0.4-1,0.8-1.4,1.3
	c-5.8,6.3-10.1,13.5-12.7,21.7c-0.3,0.9-0.4,1.9-0.5,2.8c-0.1,0.9,0.4,1.6,1.3,1.7c1.1,0.2,2.2,0.2,3.3,0.2
	C544,529.4,547.4,529.3,550.7,529.3z M632.7,529.3L632.7,529.3c2.2,0,4.5,0,6.7,0c2.1,0,4.2,0,6.2-0.1c1.3,0,1.7-0.7,1.5-1.8
	c-0.1-0.6-0.3-1.2-0.5-1.9c-2.4-8.8-7.2-16.3-13.2-23.1c-0.2-0.2-0.4-0.5-0.7-0.7c-1-0.8-2.2-0.8-3,0.1c-0.3,0.4-0.6,0.8-0.8,1.2
	c-3.9,6.8-7.9,13.5-11.6,20.4c-2.2,3.9-1.1,5.6,3.3,5.8C624.7,529.4,628.7,529.3,632.7,529.3z M601.6,569c-0.1,2.9,0.6,4.5,1.3,6.1
	c2.3,5.2,4.7,10.5,7.1,15.7c0.4,0.9,0.8,1.8,1.3,2.6c1,1.7,2.3,2.1,4,1.3c3.3-1.5,6.5-3.4,9.5-5.5c1.8-1.3,1.9-2.6,0.8-4.6
	c-0.2-0.4-0.5-0.8-0.8-1.2c-3.7-5.2-7.4-10.4-11.1-15.6c-0.6-0.8-1.2-1.5-1.8-2.2c-2.1-2-4.7-2.1-7.1-1.1S601.7,567.7,601.6,569z
	 M607.2,520.5c2.9,0.1,3.9-0.3,5.8-2.7c2.7-3.5,5.3-7.2,8-10.8c1.6-2.2,3.2-4.4,4.7-6.7c1.4-2.2,1.1-3.9-1.1-5.3
	c-3-1.9-6.1-3.5-9.2-5.1c-1.7-0.9-3-0.3-4.1,1.4c-0.2,0.3-0.3,0.6-0.4,0.9c-2.8,6.3-5.6,12.5-8.3,18.8c-0.4,1-0.8,2.1-0.9,3.2
	C601.2,517.9,603.8,520.7,607.2,520.5z M576.5,564c-2.7,0.1-4.9,0.8-6.4,3c-3.8,5.3-7.7,10.6-11.6,15.9c-0.3,0.4-0.6,0.8-0.8,1.2
	c-1.4,2.4-1.1,4.1,1.4,5.7c2.6,1.6,5.2,3.1,7.9,4.5c2.8,1.4,4.2,1.1,5.5-1.6c3-6.7,5.9-13.4,8.8-20.2c0.6-1.4,0.6-2.8,0.3-4.2
	C580.8,565.7,578.7,564,576.5,564z M574.9,520.5c5.5,0.4,7.5-3.7,6.3-8.1c-0.2-0.9-0.7-1.8-1-2.7c-2.4-5.4-4.8-10.8-7.2-16.2
	c-0.3-0.6-0.5-1.2-0.8-1.7c-1.2-2.2-2.3-2.6-4.7-1.5c-2.5,1.1-4.9,2.4-7.3,3.7c-0.4,0.2-0.8,0.5-1.2,0.8c-2.7,2.1-2.7,4.2-1.2,6.2
	c1.4,1.9,2.8,3.9,4.2,5.8c2.8,3.9,5.7,7.7,8.6,11.5C571.6,519.7,573,520.7,574.9,520.5z M649.3,542.1c-0.2-1.6-0.4-3.6-0.7-5.7
	c-0.2-1.4-1.2-2.2-2.6-2.4c-0.9-0.1-1.9-0.1-2.9,0c-5.9,0.6-11.7,1.2-17.6,1.8c-1.1,0.1-2.2,0.3-3.3,0.5c-3.1,0.7-4.6,2.6-4.7,5.7
	c-0.1,3.1,1.4,5.2,4.4,6c1.7,0.4,3.4,0.7,5.2,0.9c5.4,0.6,10.8,1.2,16.2,1.8c0.8,0.1,1.6,0.2,2.4,0.2c1.6-0.1,2.7-1,2.9-2.6
	C648.9,546.5,649,544.5,649.3,542.1z M534,542.4c0.1,0,0.1,0,0.2,0c0,1.6-0.1,3.2,0,4.8c0.2,2.9,1.6,4,4.4,3.7
	c6.2-0.6,12.4-1.4,18.6-2.1c1.4-0.2,2.9-0.4,4.2-0.8c2.6-0.7,4.3-3,4.3-5.7c0-2.5-1.4-4.7-3.8-5.6c-1.7-0.6-3.4-0.9-5.2-1
	c-2.5-0.2-5.1-0.5-7.6-0.7c-3.8-0.4-7.6-0.8-11.4-1c-2.1-0.2-3,0.7-3.3,2.6C534.2,538.5,534.2,540.4,534,542.4z M591.8,552
	c5.8-0.1,9.6-4,9.4-9.8c-0.2-6.9-5.1-9.4-9.8-9.5c-4.7-0.1-9.6,3.5-9.4,9.8C582.2,548.4,586,552.1,591.8,552z M580.1,538
	c0.1-1.7-1-2.9-2.5-2.8c-1.5,0-2.6,1.3-2.6,2.8c0,1.3,1.1,2.2,2.5,2.3C579,540.3,580,539.4,580.1,538z M608.2,538.2
	c0.1-1.6-0.9-2.8-2.4-3c-1.4-0.2-2.7,0.9-2.9,2.5c-0.2,1.3,0.7,2.4,2.2,2.6C606.7,540.4,608,539.5,608.2,538.2z M600.1,551.4
	c-1.4,0.1-2.4,1.4-2.3,3c0,1.5,0.9,2.4,2.3,2.4c1.6,0,2.6-0.9,2.6-2.6C602.7,552.5,601.5,551.3,600.1,551.4z M591.5,525.2
	c-1.6,0.1-2.6,1.1-2.5,2.8c0.1,1.4,1,2.1,2.7,2c1.6-0.1,2.5-0.9,2.5-2.3C594.2,526.2,593.1,525.1,591.5,525.2z M585.3,554
	c0-1.4-0.6-2.1-1.9-2.1c-2-0.1-2.9,0.6-3,2.2c-0.1,1.8,0.8,2.7,2.5,2.7C584.6,556.7,585.3,555.9,585.3,554z"/>
<path class="st1" d="M632.7,529.3c-4,0-8,0.1-12,0c-4.5-0.1-5.5-1.8-3.3-5.8c3.8-6.8,7.7-13.6,11.6-20.4c0.2-0.4,0.5-0.8,0.8-1.2
	c0.8-0.9,2-1,3-0.1c0.2,0.2,0.5,0.4,0.7,0.7c6,6.8,10.8,14.2,13.2,23.1c0.2,0.6,0.3,1.2,0.5,1.9c0.2,1.1-0.3,1.8-1.5,1.8
	c-2.1,0.1-4.2,0.1-6.2,0.1C637.1,529.3,634.9,529.3,632.7,529.3L632.7,529.3z"/>
</svg>
